<?xml version="1.0" encoding="utf-8"?>
<!-- Svg Vector Icons : http://www.onlinewebfonts.com/icon -->
<!DOCTYPE svg PUBLIC "-//W3C//DTD SVG 1.1//EN" "http://www.w3.org/Graphics/SVG/1.1/DTD/svg11.dtd">
<svg version="1.1" xmlns="http://www.w3.org/2000/svg" xmlns:xlink="http://www.w3.org/1999/xlink" x="0px" y="0px" viewBox="0 0 256 256" enable-background="new 0 0 256 256" xml:space="preserve">
<metadata> Svg Vector Icons : http://www.onlinewebfonts.com/icon </metadata>
<g> <path fill="#000000" d="M244.9,75.6c-2.1-2.9-6.5-3.3-9.9-0.6c-1.2,0.9-1.7,1.5-2.8,2.7l-0.1,0.1c-18.9,23.3-112.2,115.7-209.2,0.1 c0,0,0-0.1-0.1-0.1c-0.1-0.2-0.3-0.4-0.4-0.6c-2.6-3.4-7.1-4.3-10.1-2c-2.8,2.2-3,6.6-0.6,10v0c0.1,0.1,0.1,0.1,0.2,0.2v0 c10.2,11.6,21.3,22.2,33.3,31.9l-26,21.2c-2.5,2-2.9,5.6-0.8,8.1c2,2.5,5.6,2.9,8.1,0.8L54.2,125c0.2-0.2,0.4-0.3,0.5-0.5 c13.6,9.4,26.6,15.8,39.1,19.7L85.9,173c-0.8,3.1,1,6.3,4.1,7.1c3.1,0.8,6.3-1,7.1-4.1l7.9-28.9c17.5,3.6,35.6,2.7,52.7-2.7 c0,0,0,0.1,0,0.2l14.9,34.8c1.3,2.9,4.7,4.2,7.6,2.9c2.9-1.3,4.2-4.6,3-7.5l-14.7-34.3c13.6-5.6,25.7-13.3,36.4-21.4 c0.2,0.5,0.5,0.9,0.9,1.3l19.9,20.9c2.2,2.3,5.8,2.4,8.2,0.2c2.3-2.2,2.4-5.9,0.2-8.2l-19.9-20.9l-0.4-0.4 c12.6-10.6,22.6-21,29.8-27.7c0.3-0.3,0.6-0.7,0.8-1c0.1-0.2,0.3-0.4,0.4-0.6C246.3,80.3,246.4,77.6,244.9,75.6L244.9,75.6z"/></g>
</svg>